G04*
G04 #@! TF.GenerationSoftware,Altium Limited,Altium Designer,22.8.2 (66)*
G04*
G04 Layer_Physical_Order=2*
G04 Layer_Color=16711680*
%FSLAX44Y44*%
%MOMM*%
G71*
G04*
G04 #@! TF.SameCoordinates,E53D1342-04FB-46C4-8B8E-3003C50B0CB2*
G04*
G04*
G04 #@! TF.FilePolarity,Positive*
G04*
G01*
G75*
%ADD11C,0.2540*%
%ADD21C,0.1016*%
%ADD22C,0.5000*%
%ADD23O,0.3500X1.3500*%
G36*
X155664Y200142D02*
X155664Y200142D01*
X156912Y200090D01*
X158581Y199758D01*
X160401Y199004D01*
X162039Y197910D01*
X163431Y196517D01*
X164526Y194879D01*
X165280Y193059D01*
X165664Y191127D01*
Y190142D01*
X165664Y50142D01*
Y49157D01*
X165280Y47225D01*
X164526Y45405D01*
X163431Y43767D01*
X162039Y42375D01*
X160401Y41280D01*
X158581Y40526D01*
X156649Y40142D01*
X139669Y40142D01*
X137832Y40903D01*
X136425Y42310D01*
X135664Y44147D01*
Y60142D01*
X120664D01*
X120664Y45142D01*
X120664Y45142D01*
X120664Y44147D01*
X119903Y42310D01*
X118496Y40903D01*
X116658Y40142D01*
X95664Y40142D01*
X94669Y40142D01*
X92832Y40903D01*
X91425Y42310D01*
X90664Y44147D01*
Y60142D01*
X75664D01*
Y45142D01*
X75664Y45142D01*
X75664Y44147D01*
X74903Y42310D01*
X73496Y40903D01*
X71659Y40142D01*
X54679D01*
X52747Y40526D01*
X50927Y41280D01*
X49289Y42375D01*
X47896Y43767D01*
X46802Y45405D01*
X46048Y47225D01*
X45664Y49157D01*
X45664Y50142D01*
X45664Y190142D01*
Y191127D01*
X46048Y193059D01*
X46802Y194879D01*
X47896Y196517D01*
X49289Y197910D01*
X50927Y199004D01*
X52747Y199758D01*
X54679Y200142D01*
X71659D01*
X73496Y199381D01*
X74903Y197974D01*
X75664Y196136D01*
Y180142D01*
X90664D01*
X90664Y196136D01*
X91425Y197974D01*
X92832Y199381D01*
X94670Y200142D01*
X115664D01*
X115664Y200142D01*
X115664Y200142D01*
X115665D01*
X116835Y200069D01*
X118496Y199381D01*
X119903Y197974D01*
X120664Y196136D01*
X120664Y180142D01*
X135664D01*
Y196136D01*
X136425Y197974D01*
X137832Y199381D01*
X139669Y200142D01*
X155664D01*
X155664Y200142D01*
D02*
G37*
%LPC*%
G36*
X85598Y170193D02*
X84232Y169921D01*
X83075Y169147D01*
X82301Y167990D01*
X82029Y166624D01*
X82301Y165258D01*
X83075Y164101D01*
X84232Y163327D01*
X85598Y163055D01*
X86964Y163327D01*
X88121Y164101D01*
X88717Y164992D01*
X90933D01*
X91318Y163722D01*
X90695Y163305D01*
X89921Y162148D01*
X89649Y160782D01*
X89859Y159731D01*
X88735Y158608D01*
X88257Y157453D01*
Y155676D01*
X87431Y155125D01*
X86824Y154215D01*
X86811Y154154D01*
X85517D01*
X85504Y154215D01*
X84897Y155125D01*
X83987Y155732D01*
X82914Y155946D01*
X81841Y155732D01*
X80931Y155125D01*
X80324Y154215D01*
X80311Y154154D01*
X79017D01*
X79004Y154215D01*
X78397Y155125D01*
X77487Y155732D01*
X76414Y155946D01*
X75341Y155732D01*
X74431Y155125D01*
X73824Y154215D01*
X73610Y153142D01*
Y143142D01*
X73824Y142069D01*
X74431Y141159D01*
X75341Y140552D01*
X76414Y140338D01*
X77487Y140552D01*
X78397Y141159D01*
X79004Y142069D01*
X79017Y142130D01*
X80311D01*
X80324Y142069D01*
X80931Y141159D01*
X81426Y140829D01*
Y137831D01*
X81904Y136677D01*
X82317Y136264D01*
X82301Y136240D01*
X82029Y134874D01*
X82301Y133508D01*
X83075Y132351D01*
X83320Y132187D01*
X83364Y131725D01*
X83189Y130747D01*
X82691Y130415D01*
X61863Y109587D01*
X61362Y108836D01*
X61185Y107950D01*
Y83756D01*
X61362Y82871D01*
X61863Y82120D01*
X63834Y80149D01*
X64585Y79648D01*
X64790Y79607D01*
X65516Y78881D01*
X66267Y78380D01*
X67152Y78204D01*
X67818D01*
X68183Y78276D01*
X69342Y78045D01*
X70708Y78317D01*
X71865Y79091D01*
X72639Y80248D01*
X72911Y81614D01*
X72639Y82980D01*
X71865Y84137D01*
X70708Y84911D01*
X69342Y85183D01*
X67976Y84911D01*
X66855Y84162D01*
X66561Y84327D01*
X65814Y84878D01*
Y106991D01*
X85287Y126463D01*
X113284D01*
X114170Y126640D01*
X114921Y127141D01*
X123551Y135771D01*
X124052Y136522D01*
X124228Y137408D01*
Y141656D01*
X124504Y142069D01*
X124517Y142130D01*
X125811D01*
X125824Y142069D01*
X126431Y141159D01*
X127341Y140552D01*
X128414Y140338D01*
X129487Y140552D01*
X130397Y141159D01*
X131004Y142069D01*
X131017Y142130D01*
X132311D01*
X132324Y142069D01*
X132931Y141159D01*
X133841Y140552D01*
X134914Y140338D01*
X135270Y140409D01*
X136540Y139510D01*
Y107576D01*
X129736Y100772D01*
X129521Y100781D01*
X128667Y102031D01*
X128830Y102426D01*
Y114436D01*
X128352Y115590D01*
X123408Y120534D01*
X122254Y121012D01*
X102179D01*
X101583Y121903D01*
X100426Y122677D01*
X99060Y122949D01*
X97694Y122677D01*
X96537Y121903D01*
X95763Y120746D01*
X95491Y119380D01*
X95763Y118014D01*
X96537Y116857D01*
X97694Y116083D01*
X99060Y115811D01*
X100426Y116083D01*
X101583Y116857D01*
X102179Y117748D01*
X112016D01*
X112371Y116947D01*
X112477Y116478D01*
X111765Y115412D01*
X111493Y114046D01*
X111765Y112680D01*
X111919Y112450D01*
X107760Y108290D01*
X107282Y107136D01*
Y99359D01*
X106931Y99125D01*
X106324Y98215D01*
X106311Y98154D01*
X105017D01*
X105004Y98215D01*
X104397Y99125D01*
X103487Y99732D01*
X102414Y99946D01*
X101341Y99732D01*
X100431Y99125D01*
X99824Y98215D01*
X99811Y98154D01*
X98517D01*
X98504Y98215D01*
X97897Y99125D01*
X97546Y99359D01*
Y103155D01*
X97644Y103392D01*
Y107117D01*
X98535Y107713D01*
X99309Y108870D01*
X99581Y110236D01*
X99309Y111602D01*
X98535Y112759D01*
X97378Y113533D01*
X96012Y113805D01*
X94646Y113533D01*
X93489Y112759D01*
X92715Y111602D01*
X92443Y110236D01*
X92715Y108870D01*
X93489Y107713D01*
X94380Y107117D01*
Y103530D01*
X94282Y103294D01*
Y100331D01*
X93114Y99619D01*
X93038Y99636D01*
X92826Y99757D01*
X92507Y100235D01*
X91088Y101183D01*
X90684Y101264D01*
Y92142D01*
Y83021D01*
X91088Y83101D01*
X92507Y84049D01*
X92826Y84527D01*
X92998Y84625D01*
X94513Y84771D01*
X94841Y84552D01*
X95914Y84338D01*
X96987Y84552D01*
X97897Y85159D01*
X98504Y86069D01*
X98517Y86130D01*
X99811D01*
X99824Y86069D01*
X100431Y85159D01*
X101341Y84552D01*
X102414Y84338D01*
X103487Y84552D01*
X104397Y85159D01*
X105004Y86069D01*
X105017Y86130D01*
X106311D01*
X106324Y86069D01*
X106931Y85159D01*
X107841Y84552D01*
X108914Y84338D01*
X109987Y84552D01*
X110897Y85159D01*
X111504Y86069D01*
X111517Y86130D01*
X112811D01*
X112824Y86069D01*
X113431Y85159D01*
X114341Y84552D01*
X115414Y84338D01*
X116487Y84552D01*
X117397Y85159D01*
X118004Y86069D01*
X118017Y86130D01*
X119311D01*
X119324Y86069D01*
X119931Y85159D01*
X120841Y84552D01*
X121914Y84338D01*
X122987Y84552D01*
X123897Y85159D01*
X124504Y86069D01*
X124517Y86130D01*
X125811D01*
X125824Y86069D01*
X126431Y85159D01*
X127341Y84552D01*
X128414Y84338D01*
X129487Y84552D01*
X130397Y85159D01*
X131004Y86069D01*
X131017Y86130D01*
X132311D01*
X132324Y86069D01*
X132931Y85159D01*
X133841Y84552D01*
X134914Y84338D01*
X135987Y84552D01*
X136897Y85159D01*
X137504Y86069D01*
X137718Y87142D01*
Y97142D01*
X137504Y98215D01*
X136897Y99125D01*
X135987Y99732D01*
X135254Y99878D01*
X134798Y100836D01*
X134754Y101174D01*
X139326Y105746D01*
X139804Y106900D01*
Y154492D01*
X139326Y155646D01*
X129480Y165492D01*
X128326Y165970D01*
X109291D01*
X108695Y166861D01*
X107538Y167635D01*
X106172Y167907D01*
X104806Y167635D01*
X103649Y166861D01*
X102875Y165704D01*
X102603Y164338D01*
X102875Y162972D01*
X103649Y161815D01*
X104806Y161041D01*
X106172Y160769D01*
X107538Y161041D01*
X108695Y161815D01*
X109291Y162706D01*
X127649D01*
X133495Y156860D01*
X133233Y155326D01*
X132931Y155125D01*
X132324Y154215D01*
X132311Y154154D01*
X131017D01*
X131004Y154215D01*
X130397Y155125D01*
X129487Y155732D01*
X128414Y155946D01*
X127341Y155732D01*
X126431Y155125D01*
X125824Y154215D01*
X125811Y154154D01*
X124517D01*
X124504Y154215D01*
X123897Y155125D01*
X122987Y155732D01*
X121914Y155946D01*
X120841Y155732D01*
X119931Y155125D01*
X119324Y154215D01*
X119311Y154154D01*
X118017D01*
X118004Y154215D01*
X117397Y155125D01*
X116487Y155732D01*
X115414Y155946D01*
X114341Y155732D01*
X113431Y155125D01*
X112824Y154215D01*
X112811Y154154D01*
X111517D01*
X111504Y154215D01*
X110897Y155125D01*
X109987Y155732D01*
X108914Y155946D01*
X107841Y155732D01*
X106931Y155125D01*
X106324Y154215D01*
X106311Y154154D01*
X105017D01*
X105004Y154215D01*
X104397Y155125D01*
X103487Y155732D01*
X102414Y155946D01*
X101341Y155732D01*
X100431Y155125D01*
X99824Y154215D01*
X99811Y154154D01*
X98517D01*
X98504Y154215D01*
X97897Y155125D01*
X97644Y155293D01*
Y157115D01*
X98637Y158108D01*
X99115Y159262D01*
Y163121D01*
X98637Y164276D01*
X95134Y167778D01*
X93980Y168256D01*
X88717D01*
X88121Y169147D01*
X86964Y169921D01*
X85598Y170193D01*
D02*
G37*
G36*
X88144Y101264D02*
X87740Y101183D01*
X86321Y100235D01*
X86007D01*
X84588Y101183D01*
X84184Y101264D01*
Y92142D01*
Y83021D01*
X84588Y83101D01*
X86007Y84049D01*
X86321D01*
X87740Y83101D01*
X88144Y83021D01*
Y92142D01*
Y101264D01*
D02*
G37*
G36*
X81644D02*
X81240Y101183D01*
X79821Y100235D01*
X79502Y99757D01*
X79331Y99659D01*
X77815Y99513D01*
X77487Y99732D01*
X76414Y99946D01*
X75341Y99732D01*
X74431Y99125D01*
X73824Y98215D01*
X73610Y97142D01*
Y87142D01*
X73824Y86069D01*
X74431Y85159D01*
X75341Y84552D01*
X76414Y84338D01*
X77487Y84552D01*
X77815Y84771D01*
X79331Y84625D01*
X79502Y84527D01*
X79821Y84049D01*
X81240Y83101D01*
X81644Y83021D01*
Y92142D01*
Y101264D01*
D02*
G37*
%LPD*%
D11*
X113284Y128778D02*
X121914Y137408D01*
Y148142D02*
X128414D01*
X121914Y137408D02*
Y148142D01*
X65470Y81786D02*
X65884D01*
X67152Y80518D02*
X67818D01*
X65884Y81786D02*
X67152Y80518D01*
X63500Y83756D02*
X65470Y81786D01*
X63500Y83756D02*
Y107950D01*
X84328Y128778D01*
X113284D01*
D21*
X95914Y92142D02*
Y103294D01*
X96012Y103392D02*
Y110236D01*
X95914Y103294D02*
X96012Y103392D01*
X108914Y107136D02*
X115062Y113284D01*
X108914Y92142D02*
Y107136D01*
X115316Y91130D02*
Y104902D01*
X123190Y112776D01*
X99060Y119380D02*
X122254D01*
X127198Y114436D01*
Y102426D02*
Y114436D01*
X121914Y97142D02*
X127198Y102426D01*
X121914Y92142D02*
Y97142D01*
X128016Y96744D02*
X138172Y106900D01*
X128016Y91937D02*
Y96744D01*
X128326Y164338D02*
X138172Y154492D01*
Y106900D02*
Y154492D01*
X106172Y164338D02*
X128326D01*
X89889Y157453D02*
X93218Y160782D01*
X89889Y147970D02*
Y157453D01*
X96012Y147746D02*
Y157791D01*
X97483Y159262D01*
X83058Y137831D02*
Y148118D01*
Y137831D02*
X85598Y135291D01*
Y134874D02*
Y135291D01*
X102616Y138310D02*
Y147940D01*
Y138310D02*
X105290Y135636D01*
X102414Y148142D02*
X102616Y147940D01*
X97483Y159262D02*
Y163121D01*
X93980Y166624D02*
X97483Y163121D01*
X85598Y166624D02*
X93980D01*
X89662Y147743D02*
X89889Y147970D01*
X115062Y113284D02*
Y114046D01*
X105290Y135636D02*
X105410D01*
D22*
X53340Y91694D02*
D03*
X153416Y190500D02*
D03*
X54610Y184404D02*
D03*
X69850Y163830D02*
D03*
X106426Y189230D02*
D03*
X130810Y172720D02*
D03*
X154686Y166116D02*
D03*
X149860Y66802D02*
D03*
X101092Y67056D02*
D03*
X54102Y66294D02*
D03*
X54356Y119380D02*
D03*
X85089Y113713D02*
D03*
X158242Y120650D02*
D03*
X148336Y109982D02*
D03*
X69342Y81614D02*
D03*
X99060Y119380D02*
D03*
X106172Y164338D02*
D03*
X85598Y166624D02*
D03*
X93218Y160782D02*
D03*
X85598Y134874D02*
D03*
X115062Y114046D02*
D03*
X123190Y112776D02*
D03*
X105410Y135636D02*
D03*
X96012Y110236D02*
D03*
D23*
X76414Y148142D02*
D03*
X82914D02*
D03*
X89414D02*
D03*
X95914D02*
D03*
X102414D02*
D03*
X108914D02*
D03*
X115414D02*
D03*
X121914D02*
D03*
X128414D02*
D03*
X134914D02*
D03*
X76414Y92142D02*
D03*
X82914D02*
D03*
X89414D02*
D03*
X95914D02*
D03*
X102414D02*
D03*
X108914D02*
D03*
X115414D02*
D03*
X121914D02*
D03*
X128414D02*
D03*
X134914D02*
D03*
M02*
