G04*
G04 #@! TF.GenerationSoftware,Altium Limited,Altium Designer,22.8.2 (66)*
G04*
G04 Layer_Physical_Order=1*
G04 Layer_Color=255*
%FSLAX44Y44*%
%MOMM*%
G71*
G04*
G04 #@! TF.SameCoordinates,E53D1342-04FB-46C4-8B8E-3003C50B0CB2*
G04*
G04*
G04 #@! TF.FilePolarity,Positive*
G04*
G01*
G75*
%ADD11C,0.2540*%
%ADD13R,0.9800X0.9300*%
%ADD14R,1.0000X0.6000*%
%ADD15R,0.5000X1.4000*%
%ADD16R,2.0000X2.4000*%
%ADD21C,0.1016*%
%ADD22C,0.5000*%
G36*
X155664Y200142D02*
X155664Y200142D01*
X156912Y200090D01*
X158581Y199758D01*
X160401Y199004D01*
X162039Y197910D01*
X163431Y196517D01*
X164526Y194879D01*
X165280Y193059D01*
X165664Y191127D01*
Y190142D01*
X165664Y50142D01*
Y49157D01*
X165280Y47225D01*
X164526Y45405D01*
X163431Y43767D01*
X162039Y42375D01*
X160401Y41280D01*
X158581Y40526D01*
X156649Y40142D01*
X139669Y40142D01*
X137832Y40903D01*
X136425Y42310D01*
X135664Y44147D01*
Y60142D01*
X120664D01*
X120664Y45142D01*
X120664Y45142D01*
X120664Y44147D01*
X119903Y42310D01*
X118496Y40903D01*
X116658Y40142D01*
X95664Y40142D01*
X94669Y40142D01*
X92832Y40903D01*
X91425Y42310D01*
X90664Y44147D01*
Y60142D01*
X75664D01*
Y45142D01*
X75664Y45142D01*
X75664Y44147D01*
X74903Y42310D01*
X73496Y40903D01*
X71659Y40142D01*
X54679D01*
X52747Y40526D01*
X50927Y41280D01*
X49289Y42375D01*
X47896Y43767D01*
X46802Y45405D01*
X46048Y47225D01*
X45664Y49157D01*
X45664Y50142D01*
X45664Y190142D01*
Y191127D01*
X46048Y193059D01*
X46802Y194879D01*
X47896Y196517D01*
X49289Y197910D01*
X50927Y199004D01*
X52747Y199758D01*
X54679Y200142D01*
X71659D01*
X73496Y199381D01*
X74903Y197974D01*
X75664Y196136D01*
Y180142D01*
X90664D01*
X90664Y196136D01*
X91425Y197974D01*
X92832Y199381D01*
X94670Y200142D01*
X115664D01*
X115664Y200142D01*
X115664Y200142D01*
X115665D01*
X116835Y200069D01*
X118496Y199381D01*
X119903Y197974D01*
X120664Y196136D01*
X120664Y180142D01*
X135664D01*
Y196136D01*
X136425Y197974D01*
X137832Y199381D01*
X139669Y200142D01*
X155664D01*
X155664Y200142D01*
D02*
G37*
%LPC*%
G36*
X106172Y167907D02*
X104806Y167635D01*
X103649Y166861D01*
X102875Y165704D01*
X102603Y164338D01*
X102812Y163287D01*
X102010Y162484D01*
X101532Y161330D01*
Y159893D01*
X99664D01*
Y143893D01*
X106664D01*
Y159893D01*
X107146Y160963D01*
X107538Y161041D01*
X108695Y161815D01*
X109469Y162972D01*
X109741Y164338D01*
X109469Y165704D01*
X108695Y166861D01*
X107538Y167635D01*
X106172Y167907D01*
D02*
G37*
G36*
X93218Y164351D02*
X91852Y164079D01*
X90695Y163305D01*
X89921Y162148D01*
X89720Y161140D01*
X89649Y160782D01*
X89664Y159893D01*
X89664D01*
Y143893D01*
X96664D01*
Y159893D01*
X96664D01*
X96787Y160782D01*
X96718Y161125D01*
X96515Y162148D01*
X95741Y163305D01*
X94584Y164079D01*
X93218Y164351D01*
D02*
G37*
G36*
X85598Y170193D02*
X84232Y169921D01*
X83075Y169147D01*
X82301Y167990D01*
X82029Y166624D01*
X82301Y165258D01*
X82480Y164991D01*
X82010Y164521D01*
X81532Y163367D01*
Y159893D01*
X79664D01*
Y143893D01*
X86664D01*
Y159893D01*
X84796D01*
Y162009D01*
X85598Y163055D01*
X86964Y163327D01*
X88121Y164101D01*
X88895Y165258D01*
X89167Y166624D01*
X88895Y167990D01*
X88121Y169147D01*
X86964Y169921D01*
X85598Y170193D01*
D02*
G37*
G36*
X126664Y159893D02*
X119664D01*
Y143893D01*
X121558D01*
Y135892D01*
X114796D01*
Y143893D01*
X116664D01*
Y159893D01*
X109664D01*
Y143893D01*
X111532D01*
Y135892D01*
X108928D01*
X108707Y137002D01*
X107933Y138159D01*
X106776Y138933D01*
X105410Y139205D01*
X104044Y138933D01*
X102887Y138159D01*
X102113Y137002D01*
X102108Y136979D01*
X101665Y135892D01*
X100597Y135892D01*
X94665D01*
Y119892D01*
X95071D01*
X95491Y119380D01*
X95763Y118014D01*
X96537Y116857D01*
X97694Y116083D01*
X99060Y115811D01*
X100426Y116083D01*
X101583Y116857D01*
X102357Y118014D01*
X102629Y119380D01*
X102357Y120746D01*
X101665Y121781D01*
Y132654D01*
X102648Y133023D01*
X102935Y133080D01*
X104044Y132339D01*
X104665Y132215D01*
Y119892D01*
X107830D01*
X108316Y118719D01*
X101466Y111868D01*
X99131D01*
X98535Y112759D01*
X97378Y113533D01*
X96012Y113805D01*
X94646Y113533D01*
X93489Y112759D01*
X92715Y111602D01*
X92443Y110236D01*
X92715Y108870D01*
X93489Y107713D01*
X94646Y106939D01*
X96012Y106667D01*
X97378Y106939D01*
X98535Y107713D01*
X99131Y108604D01*
X102142D01*
X103296Y109082D01*
X110950Y116736D01*
X111126Y116742D01*
X111821Y115495D01*
X111765Y115412D01*
X111493Y114046D01*
X111765Y112680D01*
X112539Y111523D01*
X113696Y110749D01*
X115062Y110477D01*
X116428Y110749D01*
X117585Y111523D01*
X118359Y112680D01*
X118392Y112844D01*
X118402Y112894D01*
X119621Y112776D01*
X119642Y112672D01*
X119893Y111410D01*
X120667Y110253D01*
X121824Y109479D01*
X123190Y109207D01*
X124556Y109479D01*
X125713Y110253D01*
X126487Y111410D01*
X126759Y112776D01*
X126487Y114142D01*
X125713Y115299D01*
X124822Y115895D01*
Y118352D01*
X126893D01*
Y127892D01*
Y137432D01*
X124822D01*
Y143893D01*
X126664D01*
Y159893D01*
D02*
G37*
G36*
X71667Y152891D02*
X49668D01*
Y126891D01*
X71667D01*
Y152891D01*
D02*
G37*
G36*
X85598Y138443D02*
X84232Y138171D01*
X83075Y137397D01*
X82602Y136691D01*
X81950Y136136D01*
X81122Y135892D01*
X80937Y135892D01*
X74663D01*
Y119892D01*
X81663D01*
Y132177D01*
X82933Y132563D01*
X83075Y132351D01*
X84232Y131577D01*
X84663Y131491D01*
Y119892D01*
X91663D01*
Y135892D01*
X88964D01*
X88895Y136240D01*
X88121Y137397D01*
X86964Y138171D01*
X85598Y138443D01*
D02*
G37*
G36*
X150442Y103790D02*
X144272D01*
Y97870D01*
X150442D01*
Y103790D01*
D02*
G37*
G36*
X85344D02*
Y97870D01*
X91514D01*
Y103790D01*
X85344D01*
D02*
G37*
G36*
X141732D02*
X135562D01*
Y97870D01*
X141732D01*
Y103790D01*
D02*
G37*
G36*
X67056D02*
X60886D01*
Y97870D01*
X67056D01*
Y103790D01*
D02*
G37*
G36*
X105775Y102908D02*
X93775D01*
Y94908D01*
X105775D01*
Y102908D01*
D02*
G37*
G36*
X150442Y95330D02*
X144272D01*
Y89410D01*
X150442D01*
Y95330D01*
D02*
G37*
G36*
X141732D02*
X135562D01*
Y89410D01*
X141732D01*
Y95330D01*
D02*
G37*
G36*
X91514D02*
X85344D01*
Y89410D01*
X91514D01*
Y95330D01*
D02*
G37*
G36*
X67056D02*
X60886D01*
Y89410D01*
X67056D01*
Y95330D01*
D02*
G37*
G36*
X75766Y103790D02*
X75364Y103790D01*
X69596D01*
Y96600D01*
Y89410D01*
X75364D01*
X76634Y89410D01*
X77036Y89410D01*
X82804D01*
Y96600D01*
Y103790D01*
X77036D01*
X75766Y103790D01*
D02*
G37*
G36*
X89974Y86850D02*
X78174D01*
Y83928D01*
X74226D01*
Y86850D01*
X62426D01*
Y75550D01*
X74226D01*
Y79300D01*
X78174D01*
Y75550D01*
X89974D01*
Y77594D01*
X93775D01*
Y75908D01*
X105775D01*
Y83908D01*
X93775D01*
Y82223D01*
X89974D01*
Y86850D01*
D02*
G37*
G36*
X136664Y159893D02*
X129664D01*
Y143893D01*
X130850D01*
Y137432D01*
X129433D01*
Y127892D01*
Y118352D01*
X133203D01*
Y126336D01*
X134376Y126822D01*
X143750Y117448D01*
X144501Y116946D01*
X145387Y116770D01*
X149995D01*
X156944Y109821D01*
Y87827D01*
X152631Y83514D01*
X148902D01*
Y86850D01*
X137102D01*
Y82223D01*
X131777D01*
Y83868D01*
X133317D01*
Y88138D01*
X125777D01*
Y90678D01*
X133317D01*
Y94948D01*
X131777D01*
Y102908D01*
X119777D01*
Y101222D01*
X115890D01*
X115004Y101046D01*
X114253Y100544D01*
X111901Y98193D01*
X111400Y97442D01*
X111223Y96556D01*
Y86614D01*
X111400Y85728D01*
X111901Y84977D01*
X116877Y80002D01*
X117628Y79500D01*
X118514Y79324D01*
X119777D01*
Y75908D01*
X131777D01*
Y77594D01*
X137102D01*
Y75550D01*
X148902D01*
Y78885D01*
X153590D01*
X154476Y79062D01*
X155227Y79563D01*
X160895Y85231D01*
X161396Y85982D01*
X161572Y86868D01*
Y110780D01*
X161396Y111666D01*
X160895Y112417D01*
X152590Y120721D01*
X151840Y121223D01*
X150954Y121399D01*
X146345D01*
X142026Y125718D01*
X142512Y126891D01*
X161665D01*
Y152891D01*
X139665D01*
Y129739D01*
X138491Y129253D01*
X135479Y132266D01*
Y143893D01*
X136664D01*
Y159893D01*
D02*
G37*
%LPD*%
D11*
X84074Y79908D02*
X99775D01*
X159258Y86868D02*
Y110780D01*
X153590Y81200D02*
X159258Y86868D01*
X143002Y81200D02*
X153590D01*
X133164Y131307D02*
X145387Y119084D01*
X133164Y131307D02*
Y151893D01*
X150954Y119084D02*
X159258Y110780D01*
X145387Y119084D02*
X150954D01*
X115890Y98908D02*
X125777D01*
X113538Y96556D02*
X115890Y98908D01*
X113538Y86614D02*
Y96556D01*
Y86614D02*
X118514Y81638D01*
X124047D01*
X125777Y79908D01*
X141710D02*
X143002Y81200D01*
X125777Y79908D02*
X141710D01*
X83660Y81614D02*
X84074Y81200D01*
X69342Y81614D02*
X83660D01*
X69342D02*
X70510Y82782D01*
D13*
X68326Y96600D02*
D03*
Y81200D02*
D03*
X143002Y96600D02*
D03*
Y81200D02*
D03*
X84074Y96600D02*
D03*
Y81200D02*
D03*
D14*
X99775Y79908D02*
D03*
Y98908D02*
D03*
X125777D02*
D03*
Y89408D02*
D03*
Y79908D02*
D03*
D15*
X78163Y127892D02*
D03*
X83164Y151893D02*
D03*
X88163Y127892D02*
D03*
X93164Y151893D02*
D03*
X98166Y127892D02*
D03*
X103164Y151893D02*
D03*
X108165Y127892D02*
D03*
X113164Y151893D02*
D03*
X118163Y127892D02*
D03*
X123164Y151893D02*
D03*
X128163Y127892D02*
D03*
X133164Y151893D02*
D03*
D16*
X60667Y139891D02*
D03*
X150665D02*
D03*
D21*
X98166Y127892D02*
X99060Y126998D01*
Y119380D02*
Y126998D01*
X103164Y151893D02*
Y161330D01*
X106172Y164338D01*
X83164Y151893D02*
Y163367D01*
X85598Y165801D01*
Y166624D01*
X93218Y151947D02*
Y160782D01*
X93164Y151893D02*
X93218Y151947D01*
X85598Y134874D02*
X88163Y132309D01*
Y127892D02*
Y132309D01*
X102142Y110236D02*
X113164Y121258D01*
X96012Y110236D02*
X102142D01*
X116171Y116233D02*
Y125900D01*
X115062Y115124D02*
X116171Y116233D01*
X115062Y114046D02*
Y115124D01*
X113164Y121258D02*
Y151893D01*
X123190Y112776D02*
Y151867D01*
X123164Y151893D02*
X123190Y151867D01*
X116171Y125900D02*
X118163Y127892D01*
X108165D02*
Y132881D01*
X105410Y135636D02*
X108165Y132881D01*
D22*
X53340Y91694D02*
D03*
X153416Y190500D02*
D03*
X54610Y184404D02*
D03*
X69850Y163830D02*
D03*
X106426Y189230D02*
D03*
X130810Y172720D02*
D03*
X154686Y166116D02*
D03*
X149860Y66802D02*
D03*
X101092Y67056D02*
D03*
X54102Y66294D02*
D03*
X54356Y119380D02*
D03*
X85089Y113713D02*
D03*
X158242Y120650D02*
D03*
X148336Y109982D02*
D03*
X69342Y81614D02*
D03*
X99060Y119380D02*
D03*
X106172Y164338D02*
D03*
X85598Y166624D02*
D03*
X93218Y160782D02*
D03*
X85598Y134874D02*
D03*
X115062Y114046D02*
D03*
X123190Y112776D02*
D03*
X105410Y135636D02*
D03*
X96012Y110236D02*
D03*
M02*
