M48
;Layer_Color=9474304
;FILE_FORMAT=4:4
METRIC,LZ
;TYPE=PLATED
T1F00S00C0.3000
%
T01
X00054102Y00066294
X0005334Y00091694
X00069342Y00081614
X00101092Y00067056
X00096012Y00110236
X0009906Y0011938
X00085089Y00113713
X00085598Y00134874
X0010541Y00135636
X00106172Y00164338
X00093218Y00160782
X00085598Y00166624
X0006985Y0016383
X0005461Y00184404
X00106426Y0018923
X0013081Y0017272
X00154686Y00166116
X00153416Y001905
X00158242Y0012065
X00148336Y00109982
X0012319Y00112776
X00115062Y00114046
X00054356Y0011938
X0014986Y00066802
M30
