G04*
G04 #@! TF.GenerationSoftware,Altium Limited,Altium Designer,22.8.2 (66)*
G04*
G04 Layer_Color=2752767*
%FSLAX44Y44*%
%MOMM*%
G71*
G04*
G04 #@! TF.SameCoordinates,E53D1342-04FB-46C4-8B8E-3003C50B0CB2*
G04*
G04*
G04 #@! TF.FilePolarity,Positive*
G04*
G01*
G75*
%ADD28C,0.0508*%
D28*
X51308Y89662D02*
Y93726D01*
X55372D01*
Y89662D01*
X51308D01*
X151384Y188468D02*
Y192532D01*
X155448D01*
Y188468D01*
X151384D01*
X52578Y182372D02*
Y186436D01*
X56642D01*
Y182372D01*
X52578D01*
X67818Y161798D02*
Y165862D01*
X71882D01*
Y161798D01*
X67818D01*
X104394Y187198D02*
Y191262D01*
X108458D01*
Y187198D01*
X104394D01*
X128778Y170688D02*
Y174752D01*
X132842D01*
Y170688D01*
X128778D01*
X152654Y164084D02*
Y168148D01*
X156718D01*
Y164084D01*
X152654D01*
X147828Y64770D02*
Y68834D01*
X151892D01*
Y64770D01*
X147828D01*
X99060Y65024D02*
Y69088D01*
X103124D01*
Y65024D01*
X99060D01*
X52070Y64262D02*
Y68326D01*
X56134D01*
Y64262D01*
X52070D01*
X52324Y117348D02*
Y121412D01*
X56388D01*
Y117348D01*
X52324D01*
X83057Y111681D02*
Y115745D01*
X87121D01*
Y111681D01*
X83057D01*
X156210Y118618D02*
Y122682D01*
X160274D01*
Y118618D01*
X156210D01*
X146304Y107950D02*
Y112014D01*
X150368D01*
Y107950D01*
X146304D01*
X67310Y79582D02*
Y83646D01*
X71374D01*
Y79582D01*
X67310D01*
X97028Y117348D02*
Y121412D01*
X101092D01*
Y117348D01*
X97028D01*
X104140Y162306D02*
Y166370D01*
X108204D01*
Y162306D01*
X104140D01*
X83566Y164592D02*
Y168656D01*
X87630D01*
Y164592D01*
X83566D01*
X91186Y158750D02*
Y162814D01*
X95250D01*
Y158750D01*
X91186D01*
X83566Y132842D02*
Y136906D01*
X87630D01*
Y132842D01*
X83566D01*
X113030Y112014D02*
Y116078D01*
X117094D01*
Y112014D01*
X113030D01*
X121158Y110744D02*
Y114808D01*
X125222D01*
Y110744D01*
X121158D01*
X103378Y133604D02*
Y137668D01*
X107442D01*
Y133604D01*
X103378D01*
X93980Y108204D02*
Y112268D01*
X98044D01*
Y108204D01*
X93980D01*
M02*
