G04*
G04 #@! TF.GenerationSoftware,Altium Limited,Altium Designer,22.8.2 (66)*
G04*
G04 Layer_Color=2752767*
%FSLAX44Y44*%
%MOMM*%
G71*
G04*
G04 #@! TF.SameCoordinates,461F48FB-66DF-4060-B8FC-CAE3B283AE13*
G04*
G04*
G04 #@! TF.FilePolarity,Positive*
G04*
G01*
G75*
%ADD27C,0.0508*%
D27*
X142748Y245110D02*
Y249174D01*
X146812D01*
Y245110D01*
X142748D01*
X106934Y243332D02*
Y247396D01*
X110998D01*
Y243332D01*
X106934D01*
X71628Y243078D02*
Y247142D01*
X75692D01*
Y243078D01*
X71628D01*
X25654Y243332D02*
Y247396D01*
X29718D01*
Y243332D01*
X25654D01*
X19558Y24130D02*
Y28194D01*
X23622D01*
Y24130D01*
X19558D01*
X23876Y78994D02*
Y83058D01*
X27940D01*
Y78994D01*
X23876D01*
Y89662D02*
Y93726D01*
X27940D01*
Y89662D01*
X23876D01*
X14986Y42164D02*
Y46228D01*
X19050D01*
Y42164D01*
X14986D01*
X116078Y219964D02*
Y224028D01*
X120142D01*
Y219964D01*
X116078D01*
X84582Y220472D02*
Y224536D01*
X88646D01*
Y220472D01*
X84582D01*
X46736Y222504D02*
Y226568D01*
X50800D01*
Y222504D01*
X46736D01*
X7366Y192786D02*
Y196850D01*
X11430D01*
Y192786D01*
X7366D01*
X14986Y178308D02*
Y182372D01*
X19050D01*
Y178308D01*
X14986D01*
X47752Y150876D02*
Y154940D01*
X51816D01*
Y150876D01*
X47752D01*
X46990Y118110D02*
Y122174D01*
X51054D01*
Y118110D01*
X46990D01*
X42164Y84582D02*
Y88646D01*
X46228D01*
Y84582D01*
X42164D01*
X58674Y44704D02*
Y48768D01*
X62738D01*
Y44704D01*
X58674D01*
X79502Y44196D02*
Y48260D01*
X83566D01*
Y44196D01*
X79502D01*
X103632Y37846D02*
Y41910D01*
X107696D01*
Y37846D01*
X103632D01*
X121920Y82296D02*
Y86360D01*
X125984D01*
Y82296D01*
X121920D01*
X120904Y101092D02*
Y105156D01*
X124968D01*
Y101092D01*
X120904D01*
X123190Y118110D02*
Y122174D01*
X127254D01*
Y118110D01*
X123190D01*
X137922Y132334D02*
Y136398D01*
X141986D01*
Y132334D01*
X137922D01*
X119634Y136906D02*
Y140970D01*
X123698D01*
Y136906D01*
X119634D01*
X126746Y161544D02*
Y165608D01*
X130810D01*
Y161544D01*
X126746D01*
X125984Y179070D02*
Y183134D01*
X130048D01*
Y179070D01*
X125984D01*
M02*
