M48
;Layer_Color=9474304
;FILE_FORMAT=4:4
METRIC,LZ
;TYPE=PLATED
T1F00S00C0.3000
%
T01
X0002159Y00026162
X00017018Y00044196
X00025908Y00081026
Y00091694
X00044196Y00086614
X00049022Y00120142
X00049784Y00152908
X00017018Y0018034
X00009398Y00194818
X00027686Y00245364
X00048768Y00224536
X00086614Y00222504
X0011811Y00221996
X00108966Y00245364
X0007366Y0024511
X0014478Y00247142
X00128016Y00181102
X00128778Y00163576
X00121666Y00138938
X00125222Y00120142
X00122936Y00103124
X00123952Y00084328
X00105664Y00039878
X00081534Y00046228
X00060706Y00046736
X00139954Y00134366
M30
