G04*
G04 #@! TF.GenerationSoftware,Altium Limited,Altium Designer,22.8.2 (66)*
G04*
G04 Layer_Physical_Order=1*
G04 Layer_Color=255*
%FSLAX44Y44*%
%MOMM*%
G71*
G04*
G04 #@! TF.SameCoordinates,461F48FB-66DF-4060-B8FC-CAE3B283AE13*
G04*
G04*
G04 #@! TF.FilePolarity,Positive*
G04*
G01*
G75*
%ADD11C,0.2540*%
%ADD13R,0.9300X0.9800*%
%ADD14R,2.0000X1.6000*%
%ADD15R,0.3000X1.3000*%
%ADD16R,1.2000X1.8000*%
%ADD17R,0.6000X1.5500*%
%ADD24C,0.1524*%
%ADD25C,0.5000*%
G36*
X145500Y300500D02*
X147470D01*
X151334Y299731D01*
X154974Y298224D01*
X158249Y296035D01*
X161035Y293249D01*
X163224Y289974D01*
X164731Y286334D01*
X165500Y282470D01*
Y280500D01*
X165500D01*
X165500Y20500D01*
X165500Y18530D01*
X164731Y14666D01*
X163224Y11026D01*
X161035Y7751D01*
X158249Y4965D01*
X154973Y2776D01*
X151334Y1269D01*
X147470Y500D01*
X18530D01*
X14666Y1269D01*
X11026Y2776D01*
X7751Y4965D01*
X4965Y7751D01*
X2776Y11026D01*
X1269Y14666D01*
X500Y18530D01*
X500Y20500D01*
Y280500D01*
Y282470D01*
X1269Y286334D01*
X2776Y289974D01*
X4965Y293249D01*
X7751Y296035D01*
X11026Y298224D01*
X14666Y299731D01*
X18530Y300500D01*
X20500D01*
X20500Y300500D01*
X145500Y300500D01*
D02*
G37*
%LPC*%
G36*
X136682Y283582D02*
X134318D01*
X134216Y283540D01*
X134107Y283562D01*
X131789Y283100D01*
X131696Y283039D01*
X131586D01*
X129402Y282134D01*
X129323Y282056D01*
X129214Y282034D01*
X127249Y280721D01*
X127188Y280629D01*
X127085Y280586D01*
X125414Y278915D01*
X125371Y278813D01*
X125279Y278751D01*
X123966Y276786D01*
X123944Y276677D01*
X123866Y276598D01*
X122961Y274415D01*
Y274304D01*
X122900Y274211D01*
X122438Y271893D01*
X122460Y271784D01*
X122418Y271682D01*
Y269318D01*
X122460Y269216D01*
X122438Y269107D01*
X122900Y266789D01*
X122961Y266696D01*
Y266586D01*
X123866Y264402D01*
X123944Y264323D01*
X123966Y264214D01*
X125279Y262249D01*
X125371Y262188D01*
X125414Y262085D01*
X127085Y260414D01*
X127188Y260371D01*
X127249Y260279D01*
X129214Y258966D01*
X129323Y258944D01*
X129402Y258866D01*
X131586Y257961D01*
X131696D01*
X131789Y257899D01*
X134107Y257438D01*
X134216Y257460D01*
X134318Y257418D01*
X136682D01*
X136784Y257460D01*
X136893Y257438D01*
X139211Y257899D01*
X139304Y257961D01*
X139415D01*
X141598Y258866D01*
X141677Y258944D01*
X141785Y258966D01*
X143751Y260279D01*
X143813Y260371D01*
X143915Y260414D01*
X145586Y262085D01*
X145629Y262188D01*
X145721Y262249D01*
X147034Y264214D01*
X147056Y264323D01*
X147134Y264402D01*
X148039Y266586D01*
Y266696D01*
X148100Y266789D01*
X148562Y269107D01*
X148540Y269216D01*
X148582Y269318D01*
Y271682D01*
X148540Y271784D01*
X148562Y271893D01*
X148100Y274211D01*
X148039Y274304D01*
Y274415D01*
X147134Y276598D01*
X147056Y276677D01*
X147034Y276786D01*
X145721Y278751D01*
X145629Y278813D01*
X145586Y278915D01*
X143915Y280586D01*
X143813Y280629D01*
X143751Y280721D01*
X141785Y282034D01*
X141677Y282056D01*
X141598Y282134D01*
X139415Y283039D01*
X139304D01*
X139211Y283100D01*
X136893Y283562D01*
X136784Y283540D01*
X136682Y283582D01*
D02*
G37*
G36*
X31682D02*
X29318D01*
X29216Y283540D01*
X29107Y283562D01*
X26789Y283100D01*
X26696Y283039D01*
X26586D01*
X24402Y282134D01*
X24323Y282056D01*
X24214Y282034D01*
X22249Y280721D01*
X22188Y280629D01*
X22085Y280586D01*
X20414Y278915D01*
X20371Y278813D01*
X20279Y278751D01*
X18966Y276786D01*
X18944Y276677D01*
X18866Y276598D01*
X17961Y274415D01*
Y274304D01*
X17900Y274211D01*
X17438Y271893D01*
X17460Y271784D01*
X17418Y271682D01*
Y269318D01*
X17460Y269216D01*
X17438Y269107D01*
X17900Y266789D01*
X17961Y266696D01*
Y266586D01*
X18866Y264402D01*
X18944Y264323D01*
X18966Y264214D01*
X20279Y262249D01*
X20371Y262188D01*
X20414Y262085D01*
X22085Y260414D01*
X22188Y260371D01*
X22249Y260279D01*
X24214Y258966D01*
X24323Y258944D01*
X24402Y258866D01*
X26586Y257961D01*
X26696D01*
X26789Y257899D01*
X29107Y257438D01*
X29216Y257460D01*
X29318Y257418D01*
X31682D01*
X31784Y257460D01*
X31893Y257438D01*
X34211Y257899D01*
X34304Y257961D01*
X34415D01*
X36598Y258866D01*
X36677Y258944D01*
X36786Y258966D01*
X38751Y260279D01*
X38812Y260371D01*
X38915Y260414D01*
X40586Y262085D01*
X40629Y262188D01*
X40721Y262249D01*
X42034Y264214D01*
X42056Y264323D01*
X42134Y264402D01*
X43039Y266586D01*
Y266696D01*
X43100Y266789D01*
X43562Y269107D01*
X43540Y269216D01*
X43582Y269318D01*
Y271682D01*
X43540Y271784D01*
X43562Y271893D01*
X43100Y274211D01*
X43039Y274304D01*
Y274415D01*
X42134Y276598D01*
X42056Y276677D01*
X42034Y276786D01*
X40721Y278751D01*
X40629Y278813D01*
X40586Y278915D01*
X38915Y280586D01*
X38812Y280629D01*
X38751Y280721D01*
X36786Y282034D01*
X36677Y282056D01*
X36598Y282134D01*
X34415Y283039D01*
X34304D01*
X34211Y283100D01*
X31893Y283562D01*
X31784Y283540D01*
X31682Y283582D01*
D02*
G37*
G36*
X158820Y236239D02*
X144820D01*
Y216239D01*
X158820D01*
Y236239D01*
D02*
G37*
G36*
X22820D02*
X8820D01*
Y216239D01*
X22820D01*
Y236239D01*
D02*
G37*
G36*
X61961Y214394D02*
X26162D01*
X25475Y214258D01*
X24892Y213868D01*
X20320Y209296D01*
X19930Y208713D01*
X19793Y208026D01*
Y191262D01*
X19930Y190574D01*
X20320Y189992D01*
X31477Y178834D01*
Y169476D01*
X27624D01*
Y157676D01*
X31477D01*
Y150849D01*
X27624D01*
Y139049D01*
X38924D01*
Y150849D01*
X35071D01*
Y157676D01*
X38924D01*
Y169476D01*
X35071D01*
Y179578D01*
X34934Y180266D01*
X34544Y180848D01*
X24733Y190660D01*
X24729Y191061D01*
X25873Y192239D01*
X26036Y192239D01*
X32820D01*
Y209333D01*
X33791Y210462D01*
X34479D01*
X34820Y209739D01*
X34820Y209531D01*
Y192239D01*
X37024D01*
Y179620D01*
X37160Y178932D01*
X37550Y178350D01*
X58749Y157150D01*
Y83135D01*
X53055D01*
Y68135D01*
X61780D01*
X63046Y68135D01*
X64316Y68135D01*
X68050Y68135D01*
X69320Y68135D01*
X71788D01*
X73053Y68135D01*
Y68135D01*
X73058D01*
Y68135D01*
X76440D01*
X76901Y67021D01*
X76113Y66059D01*
X39098D01*
X35071Y70086D01*
Y101796D01*
X38924D01*
Y113596D01*
X35071D01*
Y120423D01*
X38924D01*
Y132223D01*
X27624D01*
Y120423D01*
X31477D01*
Y113596D01*
X27624D01*
Y101796D01*
X31477D01*
Y69342D01*
X31614Y68654D01*
X32004Y68072D01*
X35374Y64702D01*
X34887Y63528D01*
X31439D01*
X20189Y74779D01*
Y101796D01*
X23524D01*
Y113596D01*
X12224D01*
Y110408D01*
X10954Y110175D01*
X6887Y114243D01*
Y156775D01*
X10954Y160843D01*
X12224Y160317D01*
Y157676D01*
X23524D01*
Y169476D01*
X12224D01*
Y165891D01*
X10414D01*
X9528Y165714D01*
X8777Y165213D01*
X2935Y159371D01*
X2434Y158620D01*
X2257Y157734D01*
Y113284D01*
X2434Y112398D01*
X2935Y111647D01*
X8523Y106059D01*
X9274Y105558D01*
X10160Y105382D01*
X12224D01*
Y101796D01*
X15560D01*
Y73820D01*
X15736Y72934D01*
X16237Y72183D01*
X28843Y59577D01*
X29558Y59100D01*
X29580Y59002D01*
X29346Y57830D01*
X27557D01*
Y39830D01*
X49557D01*
Y57629D01*
X49557Y57830D01*
X50042Y58899D01*
X105410D01*
X106296Y59076D01*
X107047Y59577D01*
X112195Y64726D01*
X112697Y65477D01*
X112873Y66363D01*
Y68135D01*
X113058D01*
Y83135D01*
X112873D01*
Y117220D01*
X140456Y144803D01*
X140958Y145554D01*
X141134Y146440D01*
Y192239D01*
X142820D01*
Y209739D01*
X134820Y209739D01*
X134360Y210818D01*
Y211279D01*
X130090D01*
Y200989D01*
Y190699D01*
X134360D01*
Y191159D01*
X134575Y191665D01*
X135989Y191857D01*
X136505Y191341D01*
Y147399D01*
X108922Y119815D01*
X108420Y119064D01*
X108244Y118179D01*
Y84675D01*
X106825D01*
Y75635D01*
X104285D01*
Y84675D01*
X102347D01*
Y127439D01*
X120090Y145182D01*
X120480Y145765D01*
X120616Y146452D01*
Y191341D01*
X121515Y192239D01*
X122820Y192239D01*
X123280Y191159D01*
Y190699D01*
X127550D01*
Y200989D01*
Y211279D01*
X123280D01*
Y210819D01*
X122820Y209739D01*
X122010Y209739D01*
X114820D01*
Y192239D01*
X117023D01*
Y147197D01*
X99281Y129454D01*
X98891Y128871D01*
X98755Y128183D01*
Y84767D01*
X98049Y84446D01*
X97773Y84572D01*
X97344Y85075D01*
Y129937D01*
X110090Y142684D01*
X110480Y143267D01*
X110617Y143954D01*
Y192239D01*
X112820D01*
Y209739D01*
X104820D01*
Y192239D01*
X107023D01*
Y144698D01*
X94277Y131952D01*
X93887Y131369D01*
X93751Y130681D01*
Y83135D01*
X92353D01*
Y132442D01*
X100090Y140180D01*
X100480Y140762D01*
X100617Y141450D01*
Y192239D01*
X102820D01*
Y209739D01*
X94820D01*
Y192239D01*
X97023D01*
Y142194D01*
X89286Y134456D01*
X88896Y133874D01*
X88760Y133186D01*
Y83135D01*
X87361D01*
Y134946D01*
X90090Y137675D01*
X90480Y138258D01*
X90617Y138945D01*
Y192239D01*
X92820D01*
Y209739D01*
X84820D01*
Y192239D01*
X87023D01*
Y139690D01*
X84295Y136961D01*
X83905Y136378D01*
X83769Y135690D01*
Y84767D01*
X83063Y84446D01*
X82787Y84572D01*
X82358Y85075D01*
Y176487D01*
X82221Y177174D01*
X81832Y177757D01*
X80617Y178972D01*
Y192239D01*
X82820D01*
Y209739D01*
X74820D01*
Y192239D01*
X77024D01*
Y178228D01*
X77160Y177540D01*
X77550Y176958D01*
X78765Y175743D01*
Y84767D01*
X78059Y84446D01*
X77783Y84572D01*
X77354Y85075D01*
Y173109D01*
X77217Y173796D01*
X76828Y174379D01*
X70616Y180590D01*
Y192239D01*
X72820D01*
Y209739D01*
X67361D01*
X63231Y213868D01*
X62649Y214258D01*
X61961Y214394D01*
D02*
G37*
G36*
X25064Y152389D02*
X19144D01*
Y146219D01*
X25064D01*
Y152389D01*
D02*
G37*
G36*
X16604D02*
X10684D01*
Y146219D01*
X16604D01*
Y152389D01*
D02*
G37*
G36*
X25064Y143679D02*
X19144D01*
Y137509D01*
X25064D01*
Y143679D01*
D02*
G37*
G36*
X16604D02*
X10684D01*
Y137509D01*
X16604D01*
Y143679D01*
D02*
G37*
G36*
X25064Y133763D02*
X19144D01*
Y127593D01*
X25064D01*
Y133763D01*
D02*
G37*
G36*
X16604D02*
X10684D01*
Y127593D01*
X16604D01*
Y133763D01*
D02*
G37*
G36*
X25064Y125053D02*
X19144D01*
Y118883D01*
X25064D01*
Y125053D01*
D02*
G37*
G36*
X16604D02*
X10684D01*
Y118883D01*
X16604D01*
Y125053D01*
D02*
G37*
G36*
X138559Y57825D02*
X116559D01*
Y39825D01*
X138559D01*
Y57825D01*
D02*
G37*
%LPD*%
G36*
X64820Y207192D02*
Y192239D01*
X67024D01*
Y179846D01*
X67160Y179158D01*
X67550Y178576D01*
X73761Y172365D01*
Y84767D01*
X73056Y84446D01*
X72779Y84572D01*
X72350Y85075D01*
Y164650D01*
X72213Y165338D01*
X71824Y165921D01*
X60617Y177128D01*
Y192239D01*
X62820D01*
Y207453D01*
X63929Y207927D01*
X64820Y207192D01*
D02*
G37*
G36*
X44820Y209333D02*
Y192239D01*
X47024D01*
Y178510D01*
X47160Y177822D01*
X47550Y177240D01*
X63753Y161036D01*
Y84767D01*
X63048Y84446D01*
X62772Y84572D01*
X62343Y85075D01*
Y157894D01*
X62206Y158581D01*
X61816Y159164D01*
X40617Y180364D01*
Y192239D01*
X42820D01*
Y209531D01*
X42820Y209739D01*
X43161Y210462D01*
X43999D01*
X44820Y209333D01*
D02*
G37*
G36*
X54820D02*
Y192239D01*
X57024D01*
Y176384D01*
X57160Y175696D01*
X57550Y175114D01*
X68757Y163906D01*
Y84767D01*
X68052Y84446D01*
X67775Y84572D01*
X67346Y85075D01*
Y161780D01*
X67210Y162468D01*
X66820Y163051D01*
X50617Y179254D01*
Y192239D01*
X52820D01*
Y209531D01*
X52820Y209739D01*
X53161Y210462D01*
X53849D01*
X54820Y209333D01*
D02*
G37*
D11*
X17874Y73820D02*
Y107696D01*
Y73820D02*
X30480Y61214D01*
X105410D02*
X110559Y66363D01*
Y75635D01*
X30480Y61214D02*
X105410D01*
X4572Y157734D02*
X10414Y163576D01*
X17874D01*
X4572Y113284D02*
Y157734D01*
X10160Y107696D02*
X17874D01*
X4572Y113284D02*
X10160Y107696D01*
X138820Y146440D02*
Y200989D01*
X110559Y75635D02*
Y118179D01*
X138820Y146440D01*
D13*
X33274Y144949D02*
D03*
X17874D02*
D03*
X33274Y126323D02*
D03*
X17874D02*
D03*
X33274Y163576D02*
D03*
X17874D02*
D03*
X33274Y107696D02*
D03*
X17874D02*
D03*
D14*
X38557Y48830D02*
D03*
X127559Y48825D02*
D03*
D15*
X110559Y75635D02*
D03*
X105555D02*
D03*
X100551D02*
D03*
X95547D02*
D03*
X90556D02*
D03*
X85565D02*
D03*
X80561D02*
D03*
X75557D02*
D03*
X70554D02*
D03*
X65550D02*
D03*
X60546D02*
D03*
X55555D02*
D03*
D16*
X15820Y226239D02*
D03*
X151820D02*
D03*
D17*
X98820Y200989D02*
D03*
X138820D02*
D03*
X128820D02*
D03*
X118820D02*
D03*
X108820D02*
D03*
X88820D02*
D03*
X78820D02*
D03*
X68820D02*
D03*
X58820D02*
D03*
X48820D02*
D03*
X38820D02*
D03*
X28820D02*
D03*
D24*
X33274Y69342D02*
X38354Y64262D01*
X33274Y69342D02*
Y107696D01*
X38354Y64262D02*
X76904D01*
X80383Y67742D01*
X33274Y107696D02*
Y126323D01*
X80383Y75457D02*
X80561Y75635D01*
X80383Y67742D02*
Y75457D01*
X80561Y75635D02*
Y176487D01*
X33274Y144949D02*
Y179578D01*
X21590Y191262D02*
X33274Y179578D01*
X21590Y191262D02*
Y208026D01*
X26162Y212598D01*
X61961D01*
X68820Y205739D01*
Y200989D02*
Y205739D01*
X78820Y178228D02*
Y200989D01*
Y178228D02*
X80561Y176487D01*
X75557Y75635D02*
Y173109D01*
X68820Y179846D02*
X75557Y173109D01*
X68820Y179846D02*
Y200989D01*
X48820Y178510D02*
Y200989D01*
X65550Y75635D02*
Y161780D01*
X48820Y178510D02*
X65550Y161780D01*
X70554Y75635D02*
Y164650D01*
X58820Y176384D02*
Y200989D01*
Y176384D02*
X70554Y164650D01*
X100551Y75635D02*
Y128183D01*
X118820Y146452D01*
Y200989D01*
X95547Y130681D02*
X108820Y143954D01*
Y200989D01*
X95547Y75635D02*
Y130681D01*
X90556Y133186D02*
X98820Y141450D01*
Y200989D01*
X90556Y75635D02*
Y133186D01*
X85565Y75635D02*
Y135690D01*
X88820Y138945D02*
Y200989D01*
X85565Y135690D02*
X88820Y138945D01*
X60546Y75635D02*
Y157894D01*
X38820Y179620D02*
X60546Y157894D01*
X38820Y179620D02*
Y200989D01*
D25*
X144780Y247142D02*
D03*
X108966Y245364D02*
D03*
X73660Y245110D02*
D03*
X27686Y245364D02*
D03*
X21590Y26162D02*
D03*
X25908Y81026D02*
D03*
Y91694D02*
D03*
X17018Y44196D02*
D03*
X118110Y221996D02*
D03*
X86614Y222504D02*
D03*
X48768Y224536D02*
D03*
X9398Y194818D02*
D03*
X17018Y180340D02*
D03*
X49784Y152908D02*
D03*
X49022Y120142D02*
D03*
X44196Y86614D02*
D03*
X60706Y46736D02*
D03*
X81534Y46228D02*
D03*
X105664Y39878D02*
D03*
X123952Y84328D02*
D03*
X122936Y103124D02*
D03*
X125222Y120142D02*
D03*
X139954Y134366D02*
D03*
X121666Y138938D02*
D03*
X128778Y163576D02*
D03*
X128016Y181102D02*
D03*
M02*
