G04*
G04 #@! TF.GenerationSoftware,Altium Limited,Altium Designer,22.8.2 (66)*
G04*
G04 Layer_Physical_Order=2*
G04 Layer_Color=16711680*
%FSLAX44Y44*%
%MOMM*%
G71*
G04*
G04 #@! TF.SameCoordinates,461F48FB-66DF-4060-B8FC-CAE3B283AE13*
G04*
G04*
G04 #@! TF.FilePolarity,Positive*
G04*
G01*
G75*
%ADD25C,0.5000*%
G36*
X145500Y300500D02*
X147470D01*
X151334Y299731D01*
X154974Y298224D01*
X158249Y296035D01*
X161035Y293249D01*
X163224Y289974D01*
X164731Y286334D01*
X165500Y282470D01*
Y280500D01*
X165500D01*
X165500Y20500D01*
X165500Y18530D01*
X164731Y14666D01*
X163224Y11026D01*
X161035Y7751D01*
X158249Y4965D01*
X154973Y2776D01*
X151334Y1269D01*
X147470Y500D01*
X18530D01*
X14666Y1269D01*
X11026Y2776D01*
X7751Y4965D01*
X4965Y7751D01*
X2776Y11026D01*
X1269Y14666D01*
X500Y18530D01*
X500Y20500D01*
Y20500D01*
Y280500D01*
Y282470D01*
X1269Y286334D01*
X2776Y289974D01*
X4965Y293249D01*
X7751Y296035D01*
X11026Y298224D01*
X14666Y299731D01*
X18530Y300500D01*
X20500D01*
X20500Y300500D01*
X145500Y300500D01*
D02*
G37*
%LPC*%
G36*
X136682Y283582D02*
X134318D01*
X134216Y283540D01*
X134107Y283562D01*
X131789Y283100D01*
X131696Y283039D01*
X131586D01*
X129402Y282134D01*
X129323Y282056D01*
X129214Y282034D01*
X127249Y280721D01*
X127188Y280629D01*
X127085Y280586D01*
X125414Y278915D01*
X125371Y278813D01*
X125279Y278751D01*
X123966Y276786D01*
X123944Y276677D01*
X123866Y276598D01*
X122961Y274415D01*
Y274304D01*
X122900Y274211D01*
X122438Y271893D01*
X122460Y271784D01*
X122418Y271682D01*
Y270500D01*
Y269318D01*
X122460Y269216D01*
X122438Y269107D01*
X122900Y266789D01*
X122961Y266696D01*
Y266586D01*
X123866Y264402D01*
X123944Y264323D01*
X123966Y264214D01*
X125279Y262249D01*
X125371Y262188D01*
X125414Y262085D01*
X127085Y260414D01*
X127188Y260371D01*
X127249Y260279D01*
X129214Y258966D01*
X129323Y258944D01*
X129402Y258866D01*
X131586Y257961D01*
X131696D01*
X131789Y257899D01*
X134107Y257438D01*
X134216Y257460D01*
X134318Y257418D01*
X136682D01*
X136784Y257460D01*
X136893Y257438D01*
X139211Y257899D01*
X139304Y257961D01*
X139415D01*
X141598Y258866D01*
X141677Y258944D01*
X141785Y258966D01*
X143751Y260279D01*
X143813Y260371D01*
X143915Y260414D01*
X145586Y262085D01*
X145629Y262188D01*
X145721Y262249D01*
X147034Y264214D01*
X147056Y264323D01*
X147134Y264402D01*
X148039Y266586D01*
Y266696D01*
X148100Y266789D01*
X148562Y269107D01*
X148540Y269216D01*
X148582Y269318D01*
Y270500D01*
Y271682D01*
X148540Y271784D01*
X148562Y271893D01*
X148100Y274211D01*
X148039Y274304D01*
Y274415D01*
X147134Y276598D01*
X147056Y276677D01*
X147034Y276786D01*
X145721Y278751D01*
X145629Y278813D01*
X145586Y278915D01*
X143915Y280586D01*
X143813Y280629D01*
X143751Y280721D01*
X141785Y282034D01*
X141677Y282056D01*
X141598Y282134D01*
X139415Y283039D01*
X139304D01*
X139211Y283100D01*
X136893Y283562D01*
X136784Y283540D01*
X136682Y283582D01*
D02*
G37*
G36*
X31682D02*
X29318D01*
X29216Y283540D01*
X29107Y283562D01*
X26789Y283100D01*
X26696Y283039D01*
X26586D01*
X24402Y282134D01*
X24323Y282056D01*
X24214Y282034D01*
X22249Y280721D01*
X22188Y280629D01*
X22085Y280586D01*
X20414Y278915D01*
X20371Y278813D01*
X20279Y278751D01*
X18966Y276786D01*
X18944Y276677D01*
X18866Y276598D01*
X17961Y274415D01*
Y274304D01*
X17900Y274211D01*
X17438Y271893D01*
X17460Y271784D01*
X17418Y271682D01*
Y270500D01*
Y269318D01*
X17460Y269216D01*
X17438Y269107D01*
X17900Y266789D01*
X17961Y266696D01*
Y266586D01*
X18866Y264402D01*
X18944Y264323D01*
X18966Y264214D01*
X20279Y262249D01*
X20371Y262188D01*
X20414Y262085D01*
X22085Y260414D01*
X22188Y260371D01*
X22249Y260279D01*
X24214Y258966D01*
X24323Y258944D01*
X24402Y258866D01*
X26586Y257961D01*
X26696D01*
X26789Y257899D01*
X29107Y257438D01*
X29216Y257460D01*
X29318Y257418D01*
X31682D01*
X31784Y257460D01*
X31893Y257438D01*
X34211Y257899D01*
X34304Y257961D01*
X34415D01*
X36598Y258866D01*
X36677Y258944D01*
X36786Y258966D01*
X38751Y260279D01*
X38812Y260371D01*
X38915Y260414D01*
X40586Y262085D01*
X40629Y262188D01*
X40721Y262249D01*
X42034Y264214D01*
X42056Y264323D01*
X42134Y264402D01*
X43039Y266586D01*
Y266696D01*
X43100Y266789D01*
X43562Y269107D01*
X43540Y269216D01*
X43582Y269318D01*
Y270500D01*
Y271682D01*
X43540Y271784D01*
X43562Y271893D01*
X43100Y274211D01*
X43039Y274304D01*
Y274415D01*
X42134Y276598D01*
X42056Y276677D01*
X42034Y276786D01*
X40721Y278751D01*
X40629Y278813D01*
X40586Y278915D01*
X38915Y280586D01*
X38812Y280629D01*
X38751Y280721D01*
X36786Y282034D01*
X36677Y282056D01*
X36598Y282134D01*
X34415Y283039D01*
X34304D01*
X34211Y283100D01*
X31893Y283562D01*
X31784Y283540D01*
X31682Y283582D01*
D02*
G37*
%LPD*%
D25*
X144780Y247142D02*
D03*
X108966Y245364D02*
D03*
X73660Y245110D02*
D03*
X27686Y245364D02*
D03*
X21590Y26162D02*
D03*
X25908Y81026D02*
D03*
Y91694D02*
D03*
X17018Y44196D02*
D03*
X118110Y221996D02*
D03*
X86614Y222504D02*
D03*
X48768Y224536D02*
D03*
X9398Y194818D02*
D03*
X17018Y180340D02*
D03*
X49784Y152908D02*
D03*
X49022Y120142D02*
D03*
X44196Y86614D02*
D03*
X60706Y46736D02*
D03*
X81534Y46228D02*
D03*
X105664Y39878D02*
D03*
X123952Y84328D02*
D03*
X122936Y103124D02*
D03*
X125222Y120142D02*
D03*
X139954Y134366D02*
D03*
X121666Y138938D02*
D03*
X128778Y163576D02*
D03*
X128016Y181102D02*
D03*
M02*
